<svg width="24" height="24" viewBox="0 0 24 24" fill="none" xmlns="http://www.w3.org/2000/svg">
<mask id="mask0_150_14853" style="mask-type:alpha" maskUnits="userSpaceOnUse" x="0" y="0" width="24" height="24">
<rect width="24" height="24" fill="#D9D9D9"/>
</mask>
<g mask="url(#mask0_150_14853)">
<path d="M12 18C10.3429 18 8.92857 17.4143 7.75714 16.2429C6.58571 15.0714 6 13.6571 6 12C6 10.3429 6.58571 8.92857 7.75714 7.75714C8.92857 6.58571 10.3429 6 12 6C13.6571 6 15.0714 6.58571 16.2429 7.75714C17.4143 8.92857 18 10.3429 18 12C18 13.6571 17.4143 15.0714 16.2429 16.2429C15.0714 17.4143 13.6571 18 12 18ZM12 16.2857C13.1857 16.2857 14.1964 15.8679 15.0321 15.0321C15.8679 14.1964 16.2857 13.1857 16.2857 12C16.2857 10.8143 15.8679 9.80357 15.0321 8.96786C14.1964 8.13214 13.1857 7.71429 12 7.71429C10.8143 7.71429 9.80357 8.13214 8.96786 8.96786C8.13214 9.80357 7.71429 10.8143 7.71429 12C7.71429 13.1857 8.13214 14.1964 8.96786 15.0321C9.80357 15.8679 10.8143 16.2857 12 16.2857Z"/>
</g>
</svg>
